<svg width="1281" height="325" viewBox="0 0 1281 325" fill="none" xmlns="http://www.w3.org/2000/svg">
<path d="M156.301 166.026V273.226C156.159 273.229 156.017 273.232 155.874 273.232C96.7841 273.232 48.7107 225.14 48.7107 166.026C48.7107 106.911 96.7841 58.8188 155.874 58.8188C214.964 58.8188 263.037 106.911 263.037 166.026C263.037 185.232 257.955 203.271 249.074 218.878L284.422 254.243C290.34 245.635 295.381 236.446 299.488 226.731C307.624 207.49 311.748 187.068 311.748 166.026C311.748 144.983 307.624 124.561 299.488 105.32C291.638 86.7491 280.4 70.0739 266.095 55.7598C251.786 41.4488 235.118 30.2062 216.554 22.3528C197.321 14.2132 176.907 10.0885 155.874 10.0885C134.842 10.0885 114.426 14.2132 95.1936 22.3528C76.6292 30.2062 59.9619 41.4488 45.6545 55.7598C31.3471 70.0739 20.1112 86.7491 12.2594 105.32C4.1247 124.561 0 144.983 0 166.026C0 187.068 4.1247 207.49 12.2594 226.731C20.1112 245.302 31.3471 261.977 45.6545 276.288C59.9619 290.602 76.6292 301.842 95.1936 309.698C114.426 317.838 134.842 321.963 155.874 321.963C172.749 321.963 189.223 319.3 205.011 314.046V283.67L243.285 321.963H312.175L156.301 166.026Z" fill="#F67011"/>
<path d="M469.023 325C443.542 325 423.852 318.491 409.954 305.474C396.055 292.167 389.106 272.641 389.106 246.896V39.0521H443.397V245.594C443.397 256.587 446.148 265.12 451.649 271.195C457.44 277.27 465.403 280.307 475.538 280.307C487.699 280.307 497.833 277.125 505.941 270.761L521.142 309.379C514.772 314.586 506.954 318.491 497.688 321.095C488.423 323.698 478.867 325 469.023 325ZM350.885 135.381V91.9893H505.506V135.381H350.885Z" fill="#16151A"/>
<path d="M658.499 325C632.729 325 610.144 319.938 590.744 309.813C571.633 299.399 556.721 285.225 546.008 267.29C535.584 249.355 530.372 228.961 530.372 206.108C530.372 182.966 535.439 162.572 545.573 144.927C555.997 126.992 570.185 112.962 588.138 102.837C606.38 92.7125 627.083 87.6502 650.247 87.6502C672.832 87.6502 692.956 92.5679 710.619 102.403C728.282 112.239 742.18 126.124 752.315 144.059C762.449 161.994 767.516 183.111 767.516 207.41C767.516 209.724 767.371 212.328 767.082 215.22C767.082 218.113 766.937 220.861 766.648 223.465H573.37V187.45H737.982L716.7 198.732C716.989 185.425 714.238 173.709 708.447 163.585C702.656 153.46 694.693 145.505 684.559 139.72C674.714 133.934 663.277 131.041 650.247 131.041C636.927 131.041 625.201 133.934 615.066 139.72C605.221 145.505 597.403 153.605 591.612 164.019C586.111 174.143 583.36 186.148 583.36 200.033V208.712C583.36 222.597 586.545 234.891 592.915 245.594C599.285 256.297 608.262 264.542 619.844 270.327C631.426 276.113 644.745 279.005 659.802 279.005C672.832 279.005 684.559 276.98 694.983 272.931C705.407 268.881 714.673 262.517 722.78 253.838L751.88 287.25C741.456 299.399 728.282 308.801 712.356 315.454C696.72 321.818 678.768 325 658.499 325Z" fill="#16151A"/>
<path d="M917.391 325C893.068 325 871.352 319.938 852.241 309.813C833.42 299.399 818.653 285.225 807.939 267.29C797.226 249.355 791.869 228.961 791.869 206.108C791.869 182.966 797.226 162.572 807.939 144.927C818.653 126.992 833.42 112.962 852.241 102.837C871.352 92.7125 893.068 87.6502 917.391 87.6502C939.976 87.6502 959.81 92.2786 976.894 101.535C994.267 110.503 1007.44 123.81 1016.42 141.455L974.722 165.754C967.773 154.762 959.231 146.662 949.097 141.455C939.252 136.248 928.539 133.645 916.956 133.645C903.637 133.645 891.62 136.538 880.907 142.323C870.193 148.109 861.796 156.498 855.716 167.49C849.635 178.193 846.595 191.066 846.595 206.108C846.595 221.15 849.635 234.168 855.716 245.16C861.796 255.863 870.193 264.108 880.907 269.893C891.62 275.679 903.637 278.571 916.956 278.571C928.539 278.571 939.252 275.968 949.097 270.761C959.231 265.554 967.773 257.454 974.722 246.462L1016.42 270.761C1007.44 288.117 994.267 301.569 976.894 311.115C959.81 320.372 939.976 325 917.391 325Z" fill="#16151A"/>
<path d="M1184.14 87.6502C1202.68 87.6502 1219.18 91.2661 1233.66 98.498C1248.43 105.73 1260.01 116.867 1268.4 131.909C1276.8 146.662 1281 165.754 1281 189.186V321.963H1226.71V196.128C1226.71 175.59 1221.79 160.258 1211.94 150.133C1202.39 140.009 1188.92 134.947 1171.55 134.947C1158.81 134.947 1147.52 137.55 1137.67 142.757C1127.83 147.964 1120.15 155.774 1114.65 166.188C1109.44 176.313 1106.83 189.186 1106.83 204.806V321.963H1052.54V0H1106.83V152.737L1095.11 133.645C1103.21 118.892 1114.94 107.61 1130.29 99.7997C1145.92 91.7001 1163.88 87.6502 1184.14 87.6502Z" fill="#16151A"/>
</svg>
